<svg width="94" height="94" viewBox="0 0 94 94" fill="none" xmlns="http://www.w3.org/2000/svg">
<path d="M45.5085 0.66946C46.3037 -0.220572 47.6963 -0.220571 48.4915 0.66947L52.37 5.01082C53.003 5.71939 54.0472 5.88477 54.8682 5.40649L59.8984 2.47615C60.9297 1.87539 62.2542 2.30575 62.7354 3.39794L65.0825 8.72533C65.4656 9.5948 66.4076 10.0748 67.3362 9.8736L73.0258 8.64114C74.1922 8.38846 75.3189 9.207 75.439 10.3945L76.025 16.1864C76.1207 17.1318 76.8682 17.8793 77.8136 17.975L83.6055 18.561C84.793 18.6811 85.6115 19.8078 85.3589 20.9742L84.1264 26.6638C83.9252 27.5924 84.4052 28.5344 85.2747 28.9175L90.6021 31.2646C91.6943 31.7458 92.1246 33.0703 91.5238 34.1016L88.5935 39.1318C88.1152 39.9528 88.2806 40.997 88.9892 41.63L93.3305 45.5085C94.2206 46.3037 94.2206 47.6963 93.3305 48.4915L88.9892 52.37C88.2806 53.003 88.1152 54.0472 88.5935 54.8682L91.5238 59.8984C92.1246 60.9297 91.6943 62.2542 90.6021 62.7354L85.2747 65.0825C84.4052 65.4656 83.9252 66.4076 84.1264 67.3362L85.3589 73.0258C85.6115 74.1922 84.793 75.3189 83.6055 75.439L77.8136 76.025C76.8682 76.1207 76.1207 76.8682 76.025 77.8136L75.439 83.6055C75.3189 84.793 74.1922 85.6115 73.0258 85.3589L67.3362 84.1264C66.4076 83.9252 65.4656 84.4052 65.0825 85.2747L62.7354 90.6021C62.2542 91.6943 60.9297 92.1246 59.8984 91.5238L54.8682 88.5935C54.0472 88.1152 53.003 88.2806 52.37 88.9892L48.4915 93.3305C47.6963 94.2206 46.3037 94.2206 45.5085 93.3305L41.63 88.9892C40.997 88.2806 39.9528 88.1152 39.1318 88.5935L34.1016 91.5238C33.0703 92.1246 31.7458 91.6943 31.2646 90.6021L28.9175 85.2747C28.5344 84.4052 27.5924 83.9252 26.6638 84.1264L20.9742 85.3589C19.8078 85.6115 18.6811 84.793 18.561 83.6055L17.975 77.8136C17.8793 76.8682 17.1318 76.1207 16.1864 76.025L10.3945 75.439C9.207 75.3189 8.38846 74.1922 8.64114 73.0258L9.8736 67.3362C10.0748 66.4076 9.5948 65.4656 8.72533 65.0825L3.39794 62.7354C2.30575 62.2542 1.87539 60.9297 2.47615 59.8984L5.40649 54.8682C5.88477 54.0472 5.71938 53.003 5.01082 52.37L0.66946 48.4915C-0.220572 47.6963 -0.220571 46.3037 0.66947 45.5085L5.01082 41.63C5.71939 40.997 5.88477 39.9528 5.40649 39.1318L2.47615 34.1016C1.87539 33.0703 2.30575 31.7458 3.39794 31.2646L8.72534 28.9175C9.5948 28.5344 10.0748 27.5924 9.8736 26.6638L8.64114 20.9742C8.38846 19.8078 9.207 18.6811 10.3945 18.561L16.1864 17.975C17.1318 17.8793 17.8793 17.1318 17.975 16.1864L18.561 10.3945C18.6811 9.207 19.8078 8.38846 20.9742 8.64114L26.6638 9.8736C27.5924 10.0748 28.5344 9.5948 28.9175 8.72533L31.2646 3.39794C31.7458 2.30575 33.0703 1.87539 34.1016 2.47615L39.1318 5.40649C39.9528 5.88477 40.997 5.71938 41.63 5.01082L45.5085 0.66946Z" fill="url(#paint0_linear_2_11)"/>
<path d="M42.56 63.2937C42.56 60.3452 40.2422 58 37.28 58C34.3588 58 32 60.3314 32 63.2663C32 66.1737 34.3725 68.5326 37.28 68.5326C40.1737 68.5326 42.56 66.1874 42.56 63.2937ZM41.0788 63.3074C41.0788 63.7737 40.9828 64.24 40.8182 64.6652C40.2422 66.2149 38.9531 67.1749 37.28 67.1749C35.7165 67.1749 34.4685 66.3383 33.8377 64.912C33.6182 64.3909 33.4811 63.8286 33.4811 63.2663C33.4811 62.704 33.6182 62.1554 33.8377 61.648C34.4548 60.208 35.7028 59.3577 37.28 59.3577C39.488 59.3577 41.0788 61.1543 41.0788 63.3074Z" fill="#F15D5D"/>
<path d="M49.0976 63.952V62.5943H45.4496V59.5497H49.0976V58.192H43.9685V68.3406H45.4496V63.952H49.0976Z" fill="#F15D5D"/>
<path d="M55.7137 63.952V62.5943H52.0657V59.5497H55.7137V58.192H50.5845V68.3406H52.0657V63.952H55.7137Z" fill="#F15D5D"/>
<path d="M34.976 37.7291C34.976 35.2331 33.4949 33.6149 31.1635 32.8194C32.8915 31.8869 33.8515 30.5977 33.8515 28.568C33.8515 25.0846 30.6972 23.0274 27.488 23.0274C23.6755 23.0274 20.6035 25.304 20.5486 29.336H25.6503C25.6777 28.2937 26.0892 27.5806 27.2412 27.5806C28.256 27.5806 28.6675 28.4857 28.6675 29.3634C28.6675 31.448 26.72 31.3931 25.2389 31.3931V35.2057C26.8572 35.2057 29.792 34.8491 29.792 37.2629C29.792 38.6343 28.9966 39.5394 27.5977 39.5394C26.3086 39.5394 25.5132 38.8811 25.2389 37.6469H20C20.1372 38.9634 20.384 40.1154 21.1246 41.24C22.4412 43.2149 25.184 44.0926 27.4606 44.0926C31.0537 44.0926 34.976 41.6514 34.976 37.7291Z" fill="#F15D5D"/>
<path d="M52.096 36.3851V30.7349C52.096 27.5531 50.6697 24.9749 47.7074 23.6857C46.7474 23.2743 45.6502 23.0274 44.608 23.0274C43.5657 23.0274 42.5234 23.2469 41.536 23.6309C38.464 24.8651 36.9554 27.4709 36.9554 30.7349V36.3851C36.9554 39.6217 38.4914 42.2 41.5085 43.4617C42.496 43.8731 43.5382 44.0926 44.608 44.0926C45.76 44.0926 46.912 43.8457 47.9542 43.352C50.8068 42.0354 52.096 39.4297 52.096 36.3851ZM46.912 36.5223C46.912 38.1131 46.3908 39.5394 44.5257 39.5394C42.7428 39.5394 42.1394 38.0857 42.1394 36.5223V30.5977C42.1394 29.0617 42.7428 27.5806 44.5257 27.5806C46.3908 27.5806 46.912 29.0069 46.912 30.5977V36.5223Z" fill="#F15D5D"/>
<path d="M75.5519 39.1554C75.5519 36.44 73.3576 34.1909 70.6147 34.1909C67.8719 34.1909 65.6502 36.4126 65.6502 39.1554C65.6502 41.8983 67.8719 44.12 70.6147 44.12C73.3302 44.12 75.5519 41.8709 75.5519 39.1554ZM70.505 23.4114H67.3233L58.9302 43.7086H62.0845L70.505 23.4114ZM63.8673 27.9646C63.8673 25.2217 61.673 23 58.9302 23C56.1873 23 53.993 25.2491 53.993 27.9646C53.993 30.68 56.2147 32.9017 58.9302 32.9017C61.6456 32.9017 63.8673 30.68 63.8673 27.9646ZM72.5073 39.1554C72.5073 40.1977 71.657 41.0754 70.6147 41.0754C69.5725 41.0754 68.6947 40.1977 68.6947 39.1554C68.6947 38.0857 69.545 37.2354 70.6147 37.2354C71.6845 37.2354 72.5073 38.1131 72.5073 39.1554ZM60.8228 27.9371C60.8228 28.9794 59.9725 29.8571 58.9302 29.8571C57.9153 29.8571 57.0376 28.9794 57.0376 27.9646C57.0376 26.8949 57.8605 26.0446 58.9302 26.0446C59.9725 26.0446 60.8228 26.8949 60.8228 27.9371Z" fill="#F15D5D"/>
<defs>
<linearGradient id="paint0_linear_2_11" x1="47" y1="-1" x2="47" y2="95" gradientUnits="userSpaceOnUse">
<stop stop-color="white"/>
<stop offset="0.28776" stop-color="white"/>
<stop offset="1" stop-color="white"/>
</linearGradient>
</defs>
</svg>
